<svg width="15" height="16" viewBox="0 0 15 16" fill="none" xmlns="http://www.w3.org/2000/svg">
<g clip-path="url(#clip0_898_8)">
<path fill-rule="evenodd" clip-rule="evenodd" d="M12.0163 3.47656C11.9576 3.41797 11.9224 3.35938 11.9224 3.27734C11.9224 3.19531 11.9576 3.13672 12.0163 3.07813C12.1338 2.97266 12.3217 2.97266 12.4509 3.07813C12.5097 3.13672 12.5449 3.19531 12.5449 3.27734C12.5449 3.35938 12.5097 3.41797 12.4509 3.47656C12.3922 3.52344 12.31 3.55859 12.2395 3.55859C12.1573 3.57031 12.0751 3.54688 12.0163 3.47656Z" fill="white"/>
<path fill-rule="evenodd" clip-rule="evenodd" d="M11.2648 4.28516C11.2179 4.22656 11.1826 4.16797 11.1826 4.08594C11.1826 4.00391 11.2179 3.94531 11.2648 3.88672C11.3706 3.78125 11.5585 3.78125 11.6642 3.88672C11.7112 3.94531 11.7464 4.00391 11.7464 4.08594C11.7464 4.16797 11.7112 4.22656 11.6642 4.28516C11.6055 4.33203 11.5468 4.36719 11.4645 4.36719C11.3823 4.36719 11.3236 4.33203 11.2648 4.28516Z" fill="white"/>
<path fill-rule="evenodd" clip-rule="evenodd" d="M10.4426 5.05859C10.3956 5.01172 10.3604 4.94141 10.3604 4.85938C10.3604 4.77734 10.3956 4.71875 10.4426 4.66016C10.5483 4.55469 10.7362 4.55469 10.8419 4.66016C10.8889 4.70703 10.9242 4.77734 10.9242 4.85938C10.9242 4.94141 10.8889 5 10.8419 5.05859C10.7832 5.11719 10.7245 5.14062 10.6423 5.14062C10.56 5.14062 10.4896 5.10547 10.4426 5.05859Z" fill="white"/>
<path fill-rule="evenodd" clip-rule="evenodd" d="M9.65525 5.84375C9.59652 5.79687 9.56128 5.72656 9.56128 5.64453C9.56128 5.5625 9.59652 5.50391 9.65525 5.44531C9.77271 5.33984 9.96065 5.33984 10.0899 5.44531C10.1486 5.49219 10.1838 5.5625 10.1838 5.64453C10.1838 5.72656 10.1486 5.79687 10.0899 5.84375C10.0311 5.90234 9.94891 5.92578 9.87843 5.92578C9.7962 5.92578 9.72573 5.91406 9.65525 5.84375Z" fill="white"/>
<path fill-rule="evenodd" clip-rule="evenodd" d="M8.90376 6.62891C8.84503 6.58203 8.82153 6.51172 8.82153 6.42969C8.82153 6.34766 8.85677 6.28906 8.90376 6.23047C9.00947 6.125 9.19741 6.125 9.30313 6.23047C9.36186 6.27734 9.38535 6.34766 9.38535 6.42969C9.38535 6.51172 9.35011 6.58203 9.30313 6.62891C9.25614 6.6875 9.18567 6.71094 9.10344 6.71094C9.03297 6.72266 8.95074 6.69922 8.90376 6.62891Z" fill="white"/>
<path fill-rule="evenodd" clip-rule="evenodd" d="M7.99927 7.21484C7.99927 7.13281 8.03451 7.07422 8.08149 7.01563C8.18721 6.91016 8.37515 6.91016 8.48086 7.01563C8.5396 7.07422 8.56309 7.13281 8.56309 7.21484C8.56309 7.29688 8.52785 7.35547 8.48086 7.41406C8.43388 7.46094 8.3634 7.49609 8.28118 7.49609C8.19895 7.49609 8.14022 7.46094 8.08149 7.41406C8.02276 7.36719 7.99927 7.29688 7.99927 7.21484Z" fill="white"/>
<path fill-rule="evenodd" clip-rule="evenodd" d="M6.53071 8.94922C6.48372 8.90234 6.44849 8.83203 6.44849 8.75C6.44849 8.66797 6.48372 8.60938 6.53071 8.55078C6.63643 8.44531 6.82437 8.44531 6.93008 8.55078C6.98882 8.60938 7.01231 8.66797 7.01231 8.75C7.01231 8.83203 6.97707 8.89063 6.93008 8.94922C6.8831 9.00781 6.81262 9.03125 6.7304 9.03125C6.65992 9.04297 6.58944 9.01953 6.53071 8.94922Z" fill="white"/>
<path fill-rule="evenodd" clip-rule="evenodd" d="M5.72019 9.73438C5.66146 9.6875 5.62622 9.61719 5.62622 9.53516C5.62622 9.45312 5.66146 9.39453 5.72019 9.33594C5.83765 9.23047 6.02559 9.23047 6.1548 9.33594C6.21354 9.39453 6.24877 9.45312 6.24877 9.53516C6.24877 9.61719 6.21354 9.67578 6.1548 9.73438C6.09607 9.79297 6.01385 9.81641 5.94337 9.81641C5.8494 9.82812 5.77892 9.79297 5.72019 9.73438Z" fill="white"/>
<path fill-rule="evenodd" clip-rule="evenodd" d="M4.95674 10.5313C4.90975 10.4844 4.87451 10.4141 4.87451 10.332C4.87451 10.25 4.90975 10.1797 4.95674 10.1328C5.06245 10.0273 5.25039 10.0273 5.35611 10.1328C5.40309 10.1797 5.43833 10.25 5.43833 10.332C5.43833 10.4141 5.40309 10.4727 5.35611 10.5313C5.29738 10.5898 5.23865 10.6133 5.15642 10.6133C5.0742 10.6133 5.02721 10.5781 4.95674 10.5313Z" fill="white"/>
<path fill-rule="evenodd" clip-rule="evenodd" d="M4.16963 11.3164C4.1109 11.2695 4.0874 11.1992 4.0874 11.1172C4.0874 11.0352 4.12264 10.9766 4.16963 10.918C4.27534 10.8125 4.46328 10.8125 4.569 10.918C4.61599 10.9766 4.65122 11.0352 4.65122 11.1172C4.65122 11.1992 4.61599 11.2695 4.569 11.3164C4.51027 11.375 4.45154 11.3984 4.36931 11.3984C4.29884 11.3984 4.21661 11.375 4.16963 11.3164Z" fill="white"/>
<path fill-rule="evenodd" clip-rule="evenodd" d="M3.35911 12.1016C3.30038 12.0547 3.26514 11.9844 3.26514 11.9023C3.26514 11.8203 3.30038 11.7617 3.35911 11.7031C3.47657 11.5977 3.66451 11.5977 3.77023 11.7031C3.82896 11.7617 3.8642 11.8203 3.8642 11.9023C3.8642 11.9844 3.82896 12.0547 3.77023 12.1016C3.7115 12.1484 3.62927 12.1836 3.55879 12.1836C3.47657 12.1836 3.40609 12.1602 3.35911 12.1016Z" fill="white"/>
<path fill-rule="evenodd" clip-rule="evenodd" d="M2.58393 12.8867C2.5252 12.8281 2.50171 12.7695 2.50171 12.6875C2.50171 12.6055 2.53695 12.5469 2.58393 12.4883C2.68965 12.3828 2.87759 12.3828 2.98331 12.4883C3.04204 12.5469 3.06553 12.6055 3.06553 12.6875C3.06553 12.7695 3.03029 12.8281 2.98331 12.8867C2.93632 12.9336 2.86584 12.9687 2.78362 12.9687C2.72489 12.9805 2.65441 12.9453 2.58393 12.8867Z" fill="white"/>
<path fill-rule="evenodd" clip-rule="evenodd" d="M2.98331 3.47656C3.03029 3.41797 3.06553 3.35938 3.06553 3.27734C3.06553 3.19531 3.03029 3.13672 2.98331 3.07813C2.87759 2.97266 2.68965 2.97266 2.58393 3.07813C2.5252 3.13672 2.50171 3.19531 2.50171 3.27734C2.50171 3.35938 2.53695 3.41797 2.58393 3.47656C2.63092 3.52344 2.7014 3.55859 2.78362 3.55859C2.86584 3.57031 2.93632 3.54688 2.98331 3.47656Z" fill="white"/>
<path fill-rule="evenodd" clip-rule="evenodd" d="M3.77053 4.28516C3.82926 4.22656 3.8645 4.16797 3.8645 4.08594C3.8645 4.00391 3.82926 3.94531 3.77053 3.88672C3.65306 3.78125 3.46512 3.78125 3.33591 3.88672C3.27718 3.94531 3.24194 4.00391 3.24194 4.08594C3.24194 4.16797 3.27718 4.22656 3.33591 4.28516C3.39464 4.33203 3.47687 4.36719 3.54735 4.36719C3.62957 4.35547 3.71179 4.33203 3.77053 4.28516Z" fill="white"/>
<path fill-rule="evenodd" clip-rule="evenodd" d="M4.569 5.05859C4.61599 5.01172 4.65122 4.94141 4.65122 4.85938C4.65122 4.77734 4.61599 4.71875 4.569 4.66016C4.46328 4.55469 4.27534 4.55469 4.16963 4.66016C4.12264 4.70703 4.0874 4.77734 4.0874 4.85938C4.0874 4.94141 4.12264 5 4.16963 5.05859C4.22836 5.11719 4.28709 5.14062 4.36931 5.14062C4.43979 5.14062 4.51027 5.10547 4.569 5.05859Z" fill="white"/>
<path fill-rule="evenodd" clip-rule="evenodd" d="M5.35611 5.84375C5.40309 5.79687 5.43833 5.72656 5.43833 5.64453C5.43833 5.5625 5.40309 5.50391 5.35611 5.44531C5.25039 5.33984 5.06245 5.33984 4.95674 5.44531C4.90975 5.49219 4.87451 5.5625 4.87451 5.64453C4.87451 5.72656 4.90975 5.79687 4.95674 5.84375C5.01547 5.90234 5.0742 5.92578 5.15642 5.92578C5.2269 5.92578 5.29738 5.91406 5.35611 5.84375Z" fill="white"/>
<path fill-rule="evenodd" clip-rule="evenodd" d="M6.13131 6.62891C6.19004 6.58203 6.22528 6.51172 6.22528 6.42969C6.22528 6.34766 6.19004 6.28906 6.13131 6.23047C6.02559 6.125 5.82591 6.125 5.72019 6.23047C5.66146 6.27734 5.62622 6.34766 5.62622 6.42969C5.62622 6.51172 5.66146 6.58203 5.72019 6.62891C5.77892 6.6875 5.86115 6.71094 5.93162 6.71094C6.0021 6.72266 6.08433 6.69922 6.13131 6.62891Z" fill="white"/>
<path fill-rule="evenodd" clip-rule="evenodd" d="M7.01231 7.21484C7.01231 7.13281 6.97707 7.07422 6.93008 7.01563C6.82437 6.91016 6.63643 6.91016 6.53071 7.01563C6.47198 7.07422 6.44849 7.13281 6.44849 7.21484C6.44849 7.29688 6.48372 7.35547 6.53071 7.41406C6.5777 7.46094 6.64817 7.49609 6.7304 7.49609C6.81262 7.49609 6.87135 7.46094 6.93008 7.41406C6.98882 7.36719 7.01231 7.29688 7.01231 7.21484Z" fill="white"/>
<path fill-rule="evenodd" clip-rule="evenodd" d="M7.71719 8.21094C7.77592 8.15234 7.79942 8.09375 7.79942 8.01172C7.79942 7.92969 7.76418 7.87109 7.71719 7.8125C7.61148 7.70703 7.42354 7.70703 7.31782 7.8125C7.25909 7.87109 7.2356 7.92969 7.2356 8.01172C7.2356 8.09375 7.27083 8.15234 7.31782 8.21094C7.3648 8.25781 7.43528 8.29297 7.51751 8.29297C7.59973 8.29297 7.67021 8.25781 7.71719 8.21094Z" fill="white"/>
<path fill-rule="evenodd" clip-rule="evenodd" d="M8.50436 8.94922C8.56309 8.90234 8.59833 8.83203 8.59833 8.75C8.59833 8.66797 8.56309 8.60938 8.50436 8.55078C8.3869 8.44531 8.19895 8.44531 8.09324 8.55078C8.03451 8.60938 7.99927 8.66797 7.99927 8.75C7.99927 8.83203 8.03451 8.89063 8.09324 8.94922C8.15197 9.00781 8.23419 9.03125 8.30467 9.03125C8.3634 9.04297 8.44563 9.01953 8.50436 8.94922Z" fill="white"/>
<path fill-rule="evenodd" clip-rule="evenodd" d="M9.30313 9.73438C9.35011 9.6875 9.38535 9.61719 9.38535 9.53516C9.38535 9.45312 9.35011 9.39453 9.30313 9.33594C9.19741 9.23047 9.00947 9.23047 8.90376 9.33594C8.85677 9.39453 8.82153 9.45312 8.82153 9.53516C8.82153 9.61719 8.85677 9.67578 8.90376 9.73438C8.96249 9.79297 9.02122 9.81641 9.10344 9.81641C9.16217 9.82812 9.2444 9.79297 9.30313 9.73438Z" fill="white"/>
<path fill-rule="evenodd" clip-rule="evenodd" d="M10.0898 10.5313C10.1367 10.4844 10.172 10.4141 10.172 10.332C10.172 10.25 10.1367 10.1797 10.0898 10.1328C9.98404 10.0273 9.79609 10.0273 9.69038 10.1328C9.64339 10.1797 9.60815 10.25 9.60815 10.332C9.60815 10.4141 9.64339 10.4727 9.69038 10.5313C9.74911 10.5898 9.80784 10.6133 9.89006 10.6133C9.97229 10.6133 10.031 10.5781 10.0898 10.5313Z" fill="white"/>
<path fill-rule="evenodd" clip-rule="evenodd" d="M10.83 11.3164C10.8887 11.2695 10.9122 11.1992 10.9122 11.1172C10.9122 11.0352 10.877 10.9766 10.83 10.918C10.7243 10.8125 10.5363 10.8125 10.4306 10.918C10.3836 10.9766 10.3484 11.0352 10.3484 11.1172C10.3484 11.1992 10.3836 11.2695 10.4306 11.3164C10.4893 11.375 10.5481 11.3984 10.6303 11.3984C10.7008 11.3984 10.783 11.375 10.83 11.3164Z" fill="white"/>
<path fill-rule="evenodd" clip-rule="evenodd" d="M11.6642 12.1016C11.7229 12.0547 11.7464 11.9844 11.7464 11.9023C11.7464 11.8203 11.7112 11.7617 11.6642 11.7031C11.5585 11.5977 11.3706 11.5977 11.2648 11.7031C11.2061 11.7617 11.1826 11.8203 11.1826 11.9023C11.1826 11.9844 11.2179 12.0547 11.2648 12.1016C11.3118 12.1484 11.3823 12.1836 11.4645 12.1836C11.5468 12.1836 11.6172 12.1602 11.6642 12.1016Z" fill="white"/>
<path fill-rule="evenodd" clip-rule="evenodd" d="M12.4511 12.8867C12.5099 12.8281 12.5451 12.7695 12.5451 12.6875C12.5451 12.6055 12.5099 12.5469 12.4511 12.4883C12.3337 12.3828 12.1457 12.3828 12.04 12.4883C11.9813 12.5469 11.946 12.6055 11.946 12.6875C11.946 12.7695 11.9813 12.8281 12.04 12.8867C12.0987 12.9336 12.181 12.9687 12.2514 12.9687C12.3102 12.9805 12.3807 12.9453 12.4511 12.8867Z" fill="white"/>
<path fill-rule="evenodd" clip-rule="evenodd" d="M4.8511 3.69922C5.64985 3.17187 6.53082 2.92578 7.50576 2.91406C8.45721 2.91406 9.33818 3.17187 10.1604 3.69922L11.8519 2.01172C10.5246 1.00391 9.09151 0.5 7.50576 0.5C5.92002 0.5 4.46348 1.00391 3.17139 2.01172L4.8511 3.69922Z" fill="white"/>
<path fill-rule="evenodd" clip-rule="evenodd" d="M3.15975 10.625C2.61942 9.80469 2.361 8.9375 2.361 8C2.361 7.05078 2.61942 6.17188 3.15975 5.375L1.48003 3.69922C0.493344 4.98828 0 6.41797 0 8.01172C0 9.58203 0.493344 11.0234 1.49178 12.3359L3.15975 10.625Z" fill="white"/>
<path fill-rule="evenodd" clip-rule="evenodd" d="M10.1487 12.3008C9.34996 12.8398 8.46899 13.1211 7.51754 13.1328C6.5426 13.1328 5.64988 12.875 4.85113 12.3125L3.15967 13.9883C4.46351 15.0078 5.92004 15.5117 7.51754 15.5C9.10329 15.4883 10.5363 14.9727 11.8284 13.9883L10.1487 12.3008Z" fill="white"/>
<path fill-rule="evenodd" clip-rule="evenodd" d="M11.8049 5.35156C12.3453 6.17188 12.6272 7.0625 12.6037 8.02344C12.5919 8.96094 12.3218 9.81641 11.8049 10.6016L13.4964 12.2773C14.4948 10.9883 15.0117 9.55859 15.0117 7.98828C15.0234 6.39453 14.5183 4.94141 13.4964 3.64062L11.8049 5.35156Z" fill="white"/>
<path fill-rule="evenodd" clip-rule="evenodd" d="M13.5667 12.8281C14.2128 12.8281 14.7531 13.3555 14.7531 14.0117C14.7531 14.6563 14.2245 15.1953 13.5667 15.1953C12.9207 15.1953 12.3804 14.668 12.3804 14.0117C12.3804 13.3555 12.909 12.8281 13.5667 12.8281Z" fill="white"/>
<path fill-rule="evenodd" clip-rule="evenodd" d="M1.46809 12.8281C2.11413 12.8281 2.64271 13.3555 2.64271 14.0117C2.64271 14.6563 2.11413 15.1953 1.46809 15.1953C0.82204 15.1953 0.293457 14.668 0.293457 14.0117C0.293457 13.3555 0.82204 12.8281 1.46809 12.8281Z" fill="white"/>
<path fill-rule="evenodd" clip-rule="evenodd" d="M13.5904 0.757812C14.2364 0.757812 14.765 1.28516 14.765 1.94141C14.765 2.59766 14.2364 3.125 13.5904 3.125C12.9444 3.125 12.4158 2.59766 12.4158 1.94141C12.4158 1.28516 12.9444 0.757812 13.5904 0.757812Z" fill="white"/>
<path fill-rule="evenodd" clip-rule="evenodd" d="M1.44492 0.757812C2.09096 0.757812 2.63129 1.28516 2.63129 1.92969C2.63129 2.57422 2.10271 3.10156 1.44492 3.10156C0.798874 3.10156 0.258545 2.57422 0.258545 1.92969C0.258545 1.28516 0.787128 0.757812 1.44492 0.757812Z" fill="white"/>
</g>
<defs>
<clipPath id="clip0_898_8">
<rect width="15" height="15" fill="white" transform="translate(0 0.5)"/>
</clipPath>
</defs>
</svg>
