<svg width="181" height="227" viewBox="0 0 181 227" fill="none" xmlns="http://www.w3.org/2000/svg">
<g id="Group 414">
<g id="Ellipse 1 copy 3">
<path id="Vector" d="M139.68 99.4765C113.62 97.2465 161.78 35.6765 114.01 8.74647C87.1598 -6.56353 53.1898 0.976464 34.2798 16.1465C24.8098 23.3765 19.2798 30.4965 13.6598 40.8965C12.6598 42.8465 8.77984 51.4965 7.93984 53.8965C-0.360164 77.0765 -1.7902 106.276 4.1498 132.296C12.9998 171.006 38.0398 210.296 73.5298 221.216C116.88 234.096 144.22 222.396 158.14 203.006C176.35 180.516 204.17 104.986 139.68 99.4765Z" fill="url(#paint0_linear_21_47325)"/>
</g>
<g id="Shape 3">
<path id="Vector_2" d="M77.7359 209.249L65.0317 216.259L65.6307 217.345L78.335 210.335L77.7359 209.249Z" fill="#16345A"/>
</g>
<g id="Shape 3_2">
<path id="Vector_3" d="M88.6442 211.769L77.2133 220.706L77.9771 221.683L89.4079 212.746L88.6442 211.769Z" fill="#16345A"/>
</g>
<g id="Shape 3_3">
<path id="Vector_4" d="M99.2804 212.677L90.2504 224.007L91.2204 224.787L100.26 213.457L99.2804 212.677Z" fill="#16345A"/>
</g>
<g id="Shape 3_4">
<path id="Vector_5" d="M110.681 212.687L104.991 226.007L106.131 226.497L111.821 213.177L110.681 212.687Z" fill="#16345A"/>
</g>
<g id="Shape 3_5">
<path id="Vector_6" d="M122.009 210.646L119.289 224.826L120.509 225.076L123.229 210.886L122.009 210.646Z" fill="#16345A"/>
</g>
<g id="Shape 3_6">
<path id="Vector_7" d="M132.85 206.626L131.62 206.826L134.02 221.066L135.24 220.876L132.85 206.626Z" fill="#16345A"/>
</g>
<g id="Shape 3_7">
<path id="Vector_8" d="M143.72 200.077L142.5 200.337L145.63 214.437L146.85 214.177L143.72 200.077Z" fill="#16345A"/>
</g>
<g id="Shape 3_8">
<path id="Vector_9" d="M152.949 192.126L151.719 192.316L153.989 206.586L155.219 206.396L152.949 192.126Z" fill="#16345A"/>
</g>
<g id="Shape 4">
<path id="Vector_10" d="M70.718 205.427L58.3969 210.846L58.8961 211.981L71.2172 206.562L70.718 205.427Z" fill="#16345A"/>
</g>
<g id="Shape 5">
<path id="Vector_11" d="M64.5316 197.734L51.7446 201.906L52.1289 203.084L64.916 198.912L64.5316 197.734Z" fill="#16345A"/>
</g>
<g id="Shape 6">
<path id="Vector_12" d="M56.5739 197.027L42.5649 200.806L42.8879 202.004L56.8969 198.224L56.5739 197.027Z" fill="#16345A"/>
</g>
<g id="Shape 7">
<path id="Vector_13" d="M52.5348 192.04L38.5258 195.82L38.8488 197.017L52.8578 193.237L52.5348 192.04Z" fill="#16345A"/>
</g>
<g id="Shape 8">
<path id="Vector_14" d="M50.0478 186.634L34.8422 190.075L35.1159 191.284L50.3214 187.843L50.0478 186.634Z" fill="#16345A"/>
</g>
<g id="Shape 9">
<path id="Vector_15" d="M43.5521 178.577L27.809 184.149L28.2227 185.318L43.9658 179.746L43.5521 178.577Z" fill="#16345A"/>
</g>
<g id="Shape 10">
<path id="Vector_16" d="M40.1286 173.132L24.0492 177.643L24.3842 178.837L40.4635 174.326L40.1286 173.132Z" fill="#16345A"/>
</g>
<g id="Shape 11">
<path id="Vector_17" d="M40.257 165.964L24.6762 170.671L25.0358 171.861L40.6166 167.154L40.257 165.964Z" fill="#16345A"/>
</g>
<g id="Shape 12">
<path id="Vector_18" d="M34.0736 162.3L18.5199 166.937L18.8742 168.125L34.4278 163.488L34.0736 162.3Z" fill="#16345A"/>
</g>
<g id="Shape 13">
<path id="Vector_19" d="M31.561 157.552L16.0082 162.191L16.3627 163.38L31.9155 158.74L31.561 157.552Z" fill="#16345A"/>
</g>
<g id="Shape 14">
<path id="Vector_20" d="M27.443 153.825L13.434 157.605L13.757 158.802L27.766 155.023L27.443 153.825Z" fill="#16345A"/>
</g>
<g id="Shape 15">
<path id="Vector_21" d="M25.1486 148.126L12.3344 152.245L12.7139 153.426L25.5281 149.307L25.1486 148.126Z" fill="#16345A"/>
</g>
<g id="Shape 16">
<path id="Vector_22" d="M25.397 142.839L9.84416 147.478L10.1986 148.667L25.7514 144.027L25.397 142.839Z" fill="#16345A"/>
</g>
<g id="Shape 17">
<path id="Vector_23" d="M23.1211 137.064L8.76994 142.042L9.1763 143.213L23.5275 138.235L23.1211 137.064Z" fill="#16345A"/>
</g>
<g id="Shape 18">
<path id="Vector_24" d="M20.5856 132.443L6.57658 136.223L6.89961 137.42L20.9086 133.64L20.5856 132.443Z" fill="#16345A"/>
</g>
<g id="Shape 19">
<path id="Vector_25" d="M18.8637 120.298L3.31096 124.937L3.66542 126.126L19.2182 121.486L18.8637 120.298Z" fill="#16345A"/>
</g>
<g id="Shape 19 copy">
<path id="Vector_26" d="M19.8931 125.765L4.34026 130.404L4.69471 131.593L20.2475 126.953L19.8931 125.765Z" fill="#16345A"/>
</g>
<g id="Shape 20">
<path id="Vector_27" d="M17.4801 116.066L3.47112 119.846L3.79414 121.043L17.8032 117.263L17.4801 116.066Z" fill="#16345A"/>
</g>
<g id="Shape 21">
<path id="Vector_28" d="M17.9644 109.821L2.75822 113.259L3.03168 114.469L18.2378 111.031L17.9644 109.821Z" fill="#16345A"/>
</g>
<g id="Shape 22">
<path id="Vector_29" d="M17.7925 105.878L2.58635 109.316L2.8598 110.526L18.066 107.088L17.7925 105.878Z" fill="#16345A"/>
</g>
<g id="Shape 23">
<path id="Vector_30" d="M17.3854 98.0012L1.4926 103.836L1.91995 105L17.8128 99.1652L17.3854 98.0012Z" fill="#16345A"/>
</g>
<g id="Shape 24">
<path id="Vector_31" d="M17.6274 92.7766L2.07463 97.416L2.42909 98.6043L17.9819 93.9648L17.6274 92.7766Z" fill="#16345A"/>
</g>
<g id="Shape 25">
<path id="Vector_32" d="M19.2611 86.927L2.17229 92.4202L2.55176 93.6007L19.6406 88.1075L19.2611 86.927Z" fill="#16345A"/>
</g>
<g id="Shape 26">
<path id="Vector_33" d="M17.8958 82.6515L2.34221 87.2883L2.69646 88.4766L18.2501 83.8398L17.8958 82.6515Z" fill="#16345A"/>
</g>
<g id="Shape 27">
<path id="Vector_34" d="M19.5951 76.6574L2.50627 82.1506L2.88574 83.3311L19.9746 77.8379L19.5951 76.6574Z" fill="#16345A"/>
</g>
<g id="Shape 28">
<path id="Vector_35" d="M18.2739 72.257L2.72112 76.8964L3.07559 78.0847L18.6283 73.4453L18.2739 72.257Z" fill="#16345A"/>
</g>
<g id="Shape 28 copy">
<path id="Vector_36" d="M20.3169 65.0734L4.76408 69.7129L5.11856 70.9012L20.6714 66.2617L20.3169 65.0734Z" fill="#16345A"/>
</g>
<g id="Shape 28 copy 2">
<path id="Vector_37" d="M22.3098 58.0383L6.75627 62.675L7.11052 63.8633L22.6641 59.2266L22.3098 58.0383Z" fill="#16345A"/>
</g>
<g id="Shape 28 copy 3">
<path id="Vector_38" d="M25.0864 48.3195L9.53362 52.9589L9.88807 54.1472L25.4408 49.5077L25.0864 48.3195Z" fill="#16345A"/>
</g>
<g id="Shape 29">
<path id="Vector_39" d="M26.8301 41.8986L12.6196 44.8311L12.8702 46.0455L27.0807 43.113L26.8301 41.8986Z" fill="#16345A"/>
</g>
<g id="Shape 30">
<path id="Vector_40" d="M29.7568 36.6936L14.8852 38.9374L15.0702 40.1635L29.9418 37.9197L29.7568 36.6936Z" fill="#16345A"/>
</g>
<g id="Shape 31">
<path id="Vector_41" d="M34.9622 31.2267L20.4789 32.1075L20.5542 33.3452L35.0374 32.4644L34.9622 31.2267Z" fill="#16345A"/>
</g>
<g id="Shape 32">
<path id="Vector_42" d="M41.7503 22.0607L27.8403 22.3389L27.8651 23.5789L41.7751 23.3007L41.7503 22.0607Z" fill="#16345A"/>
</g>
<g id="Shape 32_2">
<path id="Vector_43" d="M32.9305 18.9787L32.8578 20.2166L46.7439 21.0318L46.8166 19.7939L32.9305 18.9787Z" fill="#16345A"/>
</g>
<g id="Shape 32_3">
<path id="Vector_44" d="M42.6297 12.3576L42.5571 13.5955L56.4431 14.4108L56.5158 13.1729L42.6297 12.3576Z" fill="#16345A"/>
</g>
<g id="Shape 32_4">
<path id="Vector_45" d="M54.8661 7.18573L54.7934 8.42358L68.6795 9.23884L68.7521 8.00098L54.8661 7.18573Z" fill="#16345A"/>
</g>
<g id="Shape 32_5">
<path id="Vector_46" d="M70.8817 3.10369L70.809 4.34161L84.6951 5.15687L84.7678 3.91895L70.8817 3.10369Z" fill="#16345A"/>
</g>
<g id="Ellipse 1 copy">
<path id="Vector_47" d="M176.72 92.6466C165.16 42.4966 130.64 5.23659 93.4604 3.70659C79.3104 3.12659 74.8504 4.77661 61.3204 9.81661C26.5704 26.8166 8.88047 75.3066 20.8805 127.357C30.0905 167.357 54.2504 199.727 82.5404 213.037C86.9707 214.874 91.4935 216.479 96.0904 217.847C103.698 219.752 111.609 220.115 119.359 218.913C127.108 217.71 134.538 214.968 141.21 210.847C145.76 207.608 150.102 204.088 154.21 200.307C162.031 191.965 168.146 182.175 172.21 171.487C172.79 170.027 176.12 159.757 176.79 157.037C181.63 137.517 181.91 115.177 176.72 92.6466Z" fill="url(#paint1_linear_21_47325)"/>
</g>
<path id="Vector_48" fill-rule="evenodd" clip-rule="evenodd" d="M71.5309 20.9368C69.0209 21.4568 69.341 28.6968 67.251 27.0168C65.441 25.5668 61.191 15.1068 59.251 16.0168C25.301 31.6068 8.51097 77.1568 20.931 126.417C30.481 164.257 54.6209 195.097 82.5809 207.997C84.6909 208.997 88.151 205.517 90.301 206.287C92.611 207.107 93.6109 212.127 95.9609 212.697C104.718 214.886 113.852 215.098 122.701 213.317C128.865 212.06 134.782 209.807 140.221 206.647C142.291 205.437 136.651 199.567 138.571 198.117C140.921 196.357 150.791 198.957 152.901 196.857C160.464 189.131 166.371 179.944 170.261 169.857C170.811 168.477 167.481 159.597 167.351 155.187C167.351 153.237 170.151 154.237 170.351 153.607C171.151 151.157 173.961 158.837 174.581 156.277C179.061 137.927 179.061 116.847 173.681 95.5368C161.681 48.0868 127.261 13.8568 90.781 10.6168C85.661 10.1668 93.391 15.1468 88.251 15.9568C87.351 16.1168 72.4609 20.7468 71.5309 20.9368Z" fill="url(#paint2_linear_21_47325)"/>
<path id="Vector_49" fill-rule="evenodd" clip-rule="evenodd" d="M57.7607 14.7267C23.8207 30.3167 7.02075 75.8767 19.4507 125.127C28.9907 162.977 53.1308 193.807 81.0908 206.707C83.2008 207.707 86.6607 204.227 88.8207 204.997C90.9807 205.767 92.1308 210.847 94.4708 211.417C103.231 213.608 112.37 213.816 121.221 212.027C127.38 210.77 133.291 208.514 138.721 205.347C140.801 204.147 135.151 198.267 137.081 196.827C139.421 195.057 149.291 197.657 151.401 195.557C158.964 187.831 164.871 178.644 168.761 168.557C169.311 167.187 165.981 158.307 165.861 153.887C165.801 151.937 168.651 152.937 168.861 152.307C169.651 149.857 172.471 157.537 173.091 154.977C177.561 136.627 177.561 115.557 172.191 94.2367C160.191 46.7867 125.761 12.5567 89.2808 9.3167C84.1608 8.9067 70.2307 9.90668 57.7607 14.7267Z" fill="url(#paint3_linear_21_47325)"/>
<path id="Vector_50" fill-rule="evenodd" clip-rule="evenodd" d="M59.2607 15.9964C25.3107 31.5864 8.52075 77.1364 20.9407 126.396C30.4907 164.236 54.6307 195.076 82.5907 207.976C84.7007 208.976 93.5907 212.106 95.9707 212.676C104.728 214.865 113.862 215.077 122.711 213.296C128.87 212.045 134.784 209.799 140.221 206.646C144.651 203.656 148.886 200.386 152.901 196.856C160.464 189.131 166.371 179.944 170.261 169.856C170.811 168.476 173.961 158.856 174.581 156.276C179.061 137.926 179.061 116.846 173.681 95.5364C161.681 48.0864 127.261 13.8564 90.7807 10.6164C85.6607 10.1764 72.0607 10.7564 59.2607 15.9964Z" fill="url(#paint4_linear_21_47325)"/>
<g id="Ellipse 1 copy 5">
<path id="Vector_51" d="M165.489 95.1668C154.009 44.9168 115.669 11.4268 78.3694 19.9468C41.0694 28.4668 20.4994 74.9468 31.9794 125.167C43.4594 175.387 82.3194 211.637 119.609 203.167C156.899 194.697 176.969 145.417 165.489 95.1668Z" fill="url(#paint5_linear_21_47325)"/>
</g>
<g id="Ellipse 1 copy 2">
<path id="Vector_52" d="M90.091 20.6464C122.721 20.6464 153.611 52.1864 163.541 95.6464C169.031 119.646 167.421 143.986 159.001 164.056C150.581 184.126 136.451 197.256 119.171 201.206C115.693 201.997 112.138 202.396 108.571 202.396C92.871 202.396 76.681 194.586 62.981 180.396C49.281 166.206 38.861 146.346 33.981 124.756C28.531 100.886 30.231 77.0963 38.771 57.7563C47.211 38.6363 61.451 25.9164 78.871 21.9364C82.5517 21.0923 86.3147 20.6596 90.091 20.6464ZM90.091 18.6464C86.1413 18.6386 82.2033 19.0746 78.351 19.9464C41.061 28.4763 20.481 74.9464 31.961 125.166C42.311 170.456 74.961 204.356 108.551 204.356C112.253 204.357 115.942 203.941 119.551 203.116C156.841 194.586 176.911 145.416 165.431 95.1163C155.151 50.1163 123.341 18.5764 90.031 18.5764L90.091 18.6464Z" fill="url(#paint6_linear_21_47325)"/>
</g>
<g id="Ellipse 1 copy 4">
<path id="Vector_53" d="M88.5495 21.4867C121.18 21.4867 152.07 53.0167 162 96.4867C167.49 120.487 165.88 144.817 157.46 164.887C149.04 184.957 134.92 198.087 117.63 202.037C114.153 202.835 110.597 203.238 107.03 203.237C91.3295 203.237 75.1395 195.417 61.4395 181.237C47.7395 167.057 37.3495 147.157 32.3495 125.577C26.8995 101.707 28.5995 77.9167 37.1395 58.5767C45.5795 39.4567 59.8195 26.7367 77.2395 22.7567C80.9373 21.9157 84.7173 21.4897 88.5095 21.4867L88.5495 21.4867ZM88.5095 19.4867C84.569 19.4864 80.6411 19.9292 76.7995 20.8067C39.5095 29.3267 18.9195 75.8067 30.3995 126.017C40.7495 171.317 73.3495 205.217 106.99 205.217C110.708 205.216 114.415 204.797 118.04 203.967C155.33 195.447 175.39 146.267 163.91 95.9667C153.63 50.9667 121.819 19.4367 88.5095 19.4367L88.5095 19.4867Z" fill="url(#paint7_linear_21_47325)"/>
</g>
<path id="Vector_54" d="M144.98 74.7759C142.86 68.8359 137.43 67.2959 137.88 74.6759C140.14 88.0059 141.39 103.076 137.98 112.156C135.43 118.926 143.32 136.766 143.35 136.856C155.35 121.176 151.06 94.7959 144.98 74.7759Z" fill="url(#paint8_linear_21_47325)"/>
<path id="Vector_55" d="M144.761 74.196C144.051 72.326 142.381 70.086 140.381 69.716C144.131 86.436 146.971 111.556 140.901 122.946C137.591 129.146 143.321 136.766 143.351 136.856C155.111 120.266 150.781 93.876 144.761 74.196Z" fill="url(#paint9_linear_21_47325)"/>
<path id="Vector_56" d="M63.9504 98.0276C59.7904 87.4976 59.9504 72.6976 61.1804 60.0276C61.0704 52.7176 55.6804 52.1876 53.9804 57.3976C49.3504 75.3976 47.0504 100.508 60.3904 121.018C60.4004 120.948 67.0504 105.868 63.9504 98.0276Z" fill="url(#paint10_linear_21_47325)"/>
<path id="Vector_57" d="M61.8095 107.857C54.8095 93.9671 55.6795 69.5471 58.2095 54.0271C56.3795 53.5571 54.7695 55.3371 54.2095 56.8971C49.3495 74.6471 46.9895 100.307 60.3495 121.027C61.9072 119.243 62.8819 117.025 63.1429 114.671C63.4039 112.317 62.9386 109.939 61.8095 107.857V107.857Z" fill="url(#paint11_linear_21_47325)"/>
<path id="Vector_58" d="M68.9199 102.306C65.7599 92.1358 67.9799 77.3058 67.9799 77.3058C67.9799 77.3058 53.4799 86.8959 57.0699 113.796C58.6799 125.796 80.3599 134.976 80.3599 134.976C80.3599 134.976 72.6999 114.426 68.9199 102.306Z" fill="url(#paint12_linear_21_47325)"/>
<path id="Vector_59" d="M62.6599 107.527C59.4899 97.3571 67.9799 77.3371 67.9799 77.3371C67.9799 77.3371 53.4799 86.9271 57.0699 113.827C58.6799 125.827 80.3599 135.007 80.3599 135.007C80.3599 135.007 66.4299 119.647 62.6599 107.527Z" fill="url(#paint13_linear_21_47325)"/>
<path id="Vector_60" d="M132.42 89.6457C132.42 89.6457 135.8 105.526 133.36 114.646C130.46 125.486 124.26 143.426 124.26 143.426C124.26 143.426 145.55 142.426 146.26 130.886C147.86 104.936 132.42 89.6457 132.42 89.6457Z" fill="url(#paint14_linear_21_47325)"/>
<path id="Vector_61" d="M132.42 89.6457C132.42 89.6457 142.56 113.226 140.12 122.326C137.22 133.176 124.26 143.406 124.26 143.406C124.26 143.406 145.55 142.406 146.26 130.866C147.86 104.936 132.42 89.6457 132.42 89.6457Z" fill="url(#paint15_linear_21_47325)"/>
<path id="Vector_62" d="M129.4 103.398C128.91 102.728 132.32 116.538 127.95 121.798C117.11 134.028 107.38 124.008 102.16 143.078C100.782 138.139 98.2097 133.616 94.6702 129.908C89.1902 124.058 78.2202 118.488 74.0902 111.518C69.2902 103.408 71.7702 92.0776 71.4802 92.3376C67.3302 96.1276 62.2002 102.668 64.0302 114.968C66.4302 131.178 79.1002 133.408 85.8002 143.878C97.1802 161.648 93.3502 174.738 103.55 179.798C106.31 180.078 109.3 176.738 110.75 171.228C112.27 165.418 113.03 158.898 117.75 151.488C123.17 143.048 130.65 144.488 135.04 139.728C142.35 131.818 140.49 118.418 129.4 103.398Z" fill="url(#paint16_linear_21_47325)"/>
<path id="Vector_63" d="M129.4 103.396C128.88 102.756 139.45 119.396 132.05 130.716C125.79 138.086 119.48 138.896 113.05 146.066C106.73 153.066 107.94 167.606 103.56 171.966C103.46 172.066 101.39 169.586 100.09 165.586C97.4504 157.446 95.7704 145.466 88.8404 138.136C83.3304 132.316 73.4104 123.936 69.7504 116.716C63.0904 103.546 71.8104 92.0757 71.5204 92.3457C67.3604 96.1357 61.4304 102.876 63.2504 115.176C65.6504 131.386 79.1504 133.726 85.8404 144.176C97.2204 161.956 93.3904 175.036 103.6 180.096C106.35 180.386 109.35 177.046 110.79 171.536C112.32 165.726 113.07 159.206 117.84 151.786C123.26 143.346 130.73 144.786 135.12 140.026C142.35 132.126 142.19 119.086 129.4 103.396Z" fill="url(#paint17_linear_21_47325)"/>
<path id="Vector_64" d="M148.26 72.3173C146.14 66.3773 140.71 64.8473 141.16 72.2273C143.42 85.5573 144.67 100.617 141.26 109.707C138.71 116.467 146.6 134.317 146.63 134.407C158.59 118.727 154.35 92.3473 148.26 72.3173Z" fill="url(#paint18_linear_21_47325)"/>
<path id="Vector_65" d="M148.03 71.7468C147.33 69.8768 145.66 67.6268 143.65 67.2668C147.41 83.9868 150.25 109.107 144.18 120.487C140.87 126.687 146.6 134.317 146.63 134.407C158.35 117.817 154.06 91.4268 148.03 71.7468Z" fill="url(#paint19_linear_21_47325)"/>
<path id="Vector_66" d="M67.2308 95.5764C63.0708 85.0464 63.2308 70.2364 64.4608 57.5764C64.3508 50.2664 58.9608 49.7364 57.2608 54.9464C52.6208 72.9464 50.3308 98.0564 63.6608 118.566C63.6808 118.486 70.3508 103.416 67.2308 95.5764Z" fill="url(#paint20_linear_21_47325)"/>
<path id="Vector_67" d="M65.0907 105.396C58.0907 91.5059 58.9607 67.0959 61.4907 51.5759C59.6607 51.1059 58.0507 52.8859 57.4907 54.4459C52.6407 72.2059 50.3107 97.8559 63.7007 118.576C65.2481 116.783 66.2105 114.559 66.4589 112.204C66.7073 109.848 66.2299 107.473 65.0907 105.396V105.396Z" fill="url(#paint21_linear_21_47325)"/>
<path id="Vector_68" d="M72.2006 99.8566C69.0406 89.6866 71.2006 74.8566 71.2006 74.8566C71.2006 74.8566 56.7107 84.4466 60.3007 111.347C61.9107 123.347 83.5907 132.537 83.5907 132.537C83.5907 132.537 75.9806 111.977 72.2006 99.8566Z" fill="url(#paint22_linear_21_47325)"/>
<path id="Vector_69" d="M65.9295 105.076C62.7695 94.9062 71.2495 74.8762 71.2495 74.8762C71.2495 74.8762 56.7595 84.4662 60.3495 111.366C61.9595 123.366 83.6395 132.556 83.6395 132.556C83.6395 132.556 69.7095 117.186 65.9295 105.076Z" fill="url(#paint23_linear_21_47325)"/>
<path id="Vector_70" d="M135.689 87.1769C135.689 87.1769 139.079 103.057 136.639 112.177C133.739 123.017 127.539 140.947 127.539 140.947C127.539 140.947 148.829 139.997 149.539 128.407C151.139 102.487 135.689 87.1769 135.689 87.1769Z" fill="url(#paint24_linear_21_47325)"/>
<path id="Vector_71" d="M135.689 87.1769C135.689 87.1769 145.839 110.757 143.399 119.857C140.499 130.697 127.539 140.927 127.539 140.927C127.539 140.927 148.829 139.977 149.539 128.387C151.139 102.487 135.689 87.1769 135.689 87.1769Z" fill="url(#paint25_linear_21_47325)"/>
<path id="Vector_72" d="M132.68 100.936C132.19 100.266 135.6 114.076 131.23 119.336C120.35 131.576 110.66 121.556 105.44 140.646C104.063 135.704 101.491 131.178 97.9499 127.466C92.4699 121.626 81.4999 116.056 77.3699 109.086C72.5699 100.976 75.0499 89.6459 74.7599 89.9059C70.6099 93.6959 65.4799 100.236 67.2999 112.526C69.7099 128.746 82.3799 130.976 89.0799 141.446C100.46 159.226 96.6199 172.306 106.83 177.366C109.58 177.646 112.58 174.306 114.03 168.796C115.55 162.986 116.31 156.466 121.03 149.056C126.45 140.616 133.93 142.056 138.32 137.286C145.59 129.366 143.77 115.966 132.68 100.936Z" fill="url(#paint26_linear_21_47325)"/>
<path id="Vector_73" d="M132.681 100.946C132.161 100.296 142.681 116.946 135.331 128.266C129.071 135.626 122.761 136.446 116.331 143.616C110.011 150.616 111.221 165.156 106.831 169.516C106.741 169.616 104.671 167.136 103.371 163.136C100.731 154.986 99.0508 143.006 92.1208 135.676C86.6108 129.866 76.6807 121.486 73.0307 114.266C66.3707 101.086 75.0807 89.6264 74.7907 89.8864C70.6407 93.6764 64.7007 100.426 66.5307 112.716C68.9307 128.936 82.4208 131.266 89.1208 141.716C100.501 159.496 96.6608 172.576 106.871 177.636C109.631 177.926 112.631 174.636 114.071 169.066C115.591 163.266 116.351 156.746 121.071 149.326C126.501 140.886 133.971 142.326 138.361 137.566C145.611 129.646 145.471 116.646 132.681 100.946Z" fill="url(#paint27_linear_21_47325)"/>
</g>
<defs>
<linearGradient id="paint0_linear_21_47325" x1="41.6887" y1="205.513" x2="139.968" y2="22.5862" gradientUnits="userSpaceOnUse">
<stop stop-color="#34796B"/>
<stop offset="0.37" stop-color="#33776B"/>
<stop offset="0.55" stop-color="#306F6B"/>
<stop offset="0.69" stop-color="#2B626B"/>
<stop offset="0.82" stop-color="#244F6B"/>
<stop offset="0.92" stop-color="#1A376B"/>
<stop offset="1" stop-color="#11206B"/>
</linearGradient>
<linearGradient id="paint1_linear_21_47325" x1="67.9275" y1="7.19912" x2="130.764" y2="216.003" gradientUnits="userSpaceOnUse">
<stop stop-color="#193E52"/>
<stop offset="0.19" stop-color="#1F4A58"/>
<stop offset="0.7" stop-color="#2B6564"/>
<stop offset="1" stop-color="#306F69"/>
</linearGradient>
<linearGradient id="paint2_linear_21_47325" x1="18.5689" y1="119.392" x2="176.495" y2="106.269" gradientUnits="userSpaceOnUse">
<stop stop-color="#11206B"/>
<stop offset="0.59" stop-color="#27586B"/>
<stop offset="1" stop-color="#35796B"/>
</linearGradient>
<linearGradient id="paint3_linear_21_47325" x1="170.464" y1="173.419" x2="22.0388" y2="47.7585" gradientUnits="userSpaceOnUse">
<stop stop-color="#112036"/>
<stop offset="1" stop-color="#000F22"/>
</linearGradient>
<linearGradient id="paint4_linear_21_47325" x1="106.019" y1="215.038" x2="88.9898" y2="10.0947" gradientUnits="userSpaceOnUse">
<stop stop-color="#35796B"/>
<stop offset="0.41" stop-color="#27586B"/>
<stop offset="1" stop-color="#11206B"/>
</linearGradient>
<linearGradient id="paint5_linear_21_47325" x1="72.1566" y1="21.6386" x2="126.191" y2="201.201" gradientUnits="userSpaceOnUse">
<stop stop-color="#306F69"/>
<stop offset="0.7" stop-color="#204E59"/>
<stop offset="1" stop-color="#193E52"/>
</linearGradient>
<linearGradient id="paint6_linear_21_47325" x1="30.031" y1="117.236" x2="167.681" y2="105.816" gradientUnits="userSpaceOnUse">
<stop stop-color="#CCEA97"/>
<stop offset="0.82" stop-color="#BEE776"/>
<stop offset="1" stop-color="#BBE66E"/>
</linearGradient>
<linearGradient id="paint7_linear_21_47325" x1="95.1695" y1="204.967" x2="99.2295" y2="19.7067" gradientUnits="userSpaceOnUse">
<stop stop-color="#BBE66E"/>
<stop offset="0.12" stop-color="#AAD86E"/>
<stop offset="0.72" stop-color="#55936C"/>
<stop offset="1" stop-color="#34786B"/>
</linearGradient>
<linearGradient id="paint8_linear_21_47325" x1="135.306" y1="131.477" x2="164.381" y2="83.6548" gradientUnits="userSpaceOnUse">
<stop stop-color="#122369"/>
<stop offset="0.51" stop-color="#193C53"/>
<stop offset="1" stop-color="#11206B"/>
</linearGradient>
<linearGradient id="paint9_linear_21_47325" x1="152.481" y1="75.7328" x2="125.518" y2="127.209" gradientUnits="userSpaceOnUse">
<stop stop-color="#122369"/>
<stop offset="0.51" stop-color="#193C53"/>
<stop offset="1" stop-color="#11206B"/>
</linearGradient>
<linearGradient id="paint10_linear_21_47325" x1="51.1868" y1="115.141" x2="80.3208" y2="67.2125" gradientUnits="userSpaceOnUse">
<stop stop-color="#122369"/>
<stop offset="0.51" stop-color="#193C53"/>
<stop offset="1" stop-color="#11206B"/>
</linearGradient>
<linearGradient id="paint11_linear_21_47325" x1="46.8203" y1="77.4361" x2="77.2686" y2="92.1288" gradientUnits="userSpaceOnUse">
<stop stop-color="#122369"/>
<stop offset="0.51" stop-color="#193C53"/>
<stop offset="1" stop-color="#11206B"/>
</linearGradient>
<linearGradient id="paint12_linear_21_47325" x1="56.1437" y1="102.588" x2="85.6119" y2="108.369" gradientUnits="userSpaceOnUse">
<stop stop-color="#122369"/>
<stop offset="0.51" stop-color="#193C53"/>
<stop offset="1" stop-color="#11206B"/>
</linearGradient>
<linearGradient id="paint13_linear_21_47325" x1="57.6739" y1="87.1015" x2="88.8851" y2="131.343" gradientUnits="userSpaceOnUse">
<stop stop-color="#122369"/>
<stop offset="0.51" stop-color="#193C53"/>
<stop offset="1" stop-color="#11206B"/>
</linearGradient>
<linearGradient id="paint14_linear_21_47325" x1="127.226" y1="116.238" x2="148.432" y2="120.398" gradientUnits="userSpaceOnUse">
<stop stop-color="#122369"/>
<stop offset="0.51" stop-color="#193C53"/>
<stop offset="1" stop-color="#11206B"/>
</linearGradient>
<linearGradient id="paint15_linear_21_47325" x1="118.049" y1="120.84" x2="146.067" y2="110.796" gradientUnits="userSpaceOnUse">
<stop stop-color="#122369"/>
<stop offset="0.51" stop-color="#193C53"/>
<stop offset="1" stop-color="#11206B"/>
</linearGradient>
<linearGradient id="paint16_linear_21_47325" x1="66.4826" y1="132.562" x2="141.662" y2="129.725" gradientUnits="userSpaceOnUse">
<stop stop-color="#122369"/>
<stop offset="0.51" stop-color="#193C53"/>
<stop offset="1" stop-color="#11206B"/>
</linearGradient>
<linearGradient id="paint17_linear_21_47325" x1="65.6908" y1="132.568" x2="142.208" y2="129.681" gradientUnits="userSpaceOnUse">
<stop stop-color="#122369"/>
<stop offset="0.51" stop-color="#193C53"/>
<stop offset="1" stop-color="#11206B"/>
</linearGradient>
<linearGradient id="paint18_linear_21_47325" x1="138.599" y1="129.04" x2="167.677" y2="81.208" gradientUnits="userSpaceOnUse">
<stop stop-color="#AB9BB6"/>
<stop offset="1" stop-color="#F3EDF1"/>
</linearGradient>
<linearGradient id="paint19_linear_21_47325" x1="155.765" y1="73.2828" x2="128.799" y2="124.769" gradientUnits="userSpaceOnUse">
<stop stop-color="#AB9BB6"/>
<stop offset="1" stop-color="#F3EDF1"/>
</linearGradient>
<linearGradient id="paint20_linear_21_47325" x1="54.4714" y1="112.689" x2="83.6054" y2="64.7605" gradientUnits="userSpaceOnUse">
<stop stop-color="#AB9BB6"/>
<stop offset="1" stop-color="#F3EDF1"/>
</linearGradient>
<linearGradient id="paint21_linear_21_47325" x1="50.1057" y1="74.9841" x2="80.5637" y2="89.6753" gradientUnits="userSpaceOnUse">
<stop stop-color="#AB9BB6"/>
<stop offset="1" stop-color="#F3EDF1"/>
</linearGradient>
<linearGradient id="paint22_linear_21_47325" x1="59.4185" y1="100.133" x2="88.8867" y2="105.915" gradientUnits="userSpaceOnUse">
<stop stop-color="#AB9BB6"/>
<stop offset="1" stop-color="#F3EDF1"/>
</linearGradient>
<linearGradient id="paint23_linear_21_47325" x1="60.9581" y1="84.6604" x2="92.1713" y2="128.889" gradientUnits="userSpaceOnUse">
<stop stop-color="#AB9BB6"/>
<stop offset="1" stop-color="#F3EDF1"/>
</linearGradient>
<linearGradient id="paint24_linear_21_47325" x1="130.499" y1="113.784" x2="151.705" y2="117.944" gradientUnits="userSpaceOnUse">
<stop stop-color="#AB9BB6"/>
<stop offset="1" stop-color="#F3EDF1"/>
</linearGradient>
<linearGradient id="paint25_linear_21_47325" x1="121.342" y1="118.393" x2="149.351" y2="108.356" gradientUnits="userSpaceOnUse">
<stop stop-color="#AB9BB6"/>
<stop offset="1" stop-color="#F3EDF1"/>
</linearGradient>
<linearGradient id="paint26_linear_21_47325" x1="69.7669" y1="130.12" x2="144.956" y2="127.283" gradientUnits="userSpaceOnUse">
<stop stop-color="#AB9BB6"/>
<stop offset="1" stop-color="#F3EDF1"/>
</linearGradient>
<linearGradient id="paint27_linear_21_47325" x1="68.9757" y1="130.129" x2="145.493" y2="127.241" gradientUnits="userSpaceOnUse">
<stop stop-color="#AB9BB6"/>
<stop offset="1" stop-color="#F3EDF1"/>
</linearGradient>
</defs>
</svg>
